<?xml version="1.0" encoding="UTF-8"?>
<svg version="1.1" xmlns="http://www.w3.org/2000/svg" width="512" height="512">
<path d="M0 0 C0.82862045 0.00359528 1.65724091 0.00719055 2.51097107 0.01089478 C3.81329178 0.01067574 3.81329178 0.01067574 5.141922 0.01045227 C8.02594967 0.01115171 10.9099136 0.01894554 13.79393005 0.02676392 C15.78790247 0.02862799 17.78187535 0.03005194 19.77584839 0.03105164 C25.03498082 0.03487769 30.29408583 0.04470871 35.5532074 0.05575562 C40.91534555 0.06596786 46.27748811 0.07054885 51.63963318 0.07559204 C62.16894213 0.0863309 72.69823069 0.10340837 83.2275238 0.12442017 C83.2275238 0.78442017 83.2275238 1.44442017 83.2275238 2.12442017 C84.4856488 2.1128186 85.7437738 2.10121704 87.0400238 2.08926392 C97.81992578 2.02159878 108.47827755 2.283697 119.2275238 3.12442017 C119.2275238 3.78442017 119.2275238 4.44442017 119.2275238 5.12442017 C119.95455505 5.1128186 120.6815863 5.10121704 121.4306488 5.08926392 C128.75384339 5.02354294 135.94119066 5.40095446 143.2275238 6.12442017 C143.2275238 6.78442017 143.2275238 7.44442017 143.2275238 8.12442017 C144.3825238 8.08317017 145.5375238 8.04192017 146.7275238 7.99942017 C151.4459313 7.99185862 156.0521827 8.48426783 160.7275238 9.06192017 C161.44617615 9.14877075 162.16482849 9.23562134 162.90525818 9.32510376 C168.10062167 9.99751803 168.10062167 9.99751803 169.2275238 11.12442017 C171.91615045 11.52435703 174.59104597 11.87576559 177.2900238 12.18692017 C178.04863708 12.27779907 178.80725037 12.36867798 179.58885193 12.46231079 C181.4679539 12.68685757 183.34768475 12.90612995 185.2275238 13.12442017 C185.2275238 13.78442017 185.2275238 14.44442017 185.2275238 15.12442017 C189.5175238 15.45442017 193.8075238 15.78442017 198.2275238 16.12442017 C198.2275238 16.78442017 198.2275238 17.44442017 198.2275238 18.12442017 C198.95197693 18.17340454 199.67643005 18.22238892 200.4228363 18.27285767 C205.6916709 18.68031421 210.24622553 19.28350559 215.2275238 21.12442017 C216.7445871 21.4745117 218.26587787 21.80657693 219.7900238 22.12442017 C223.11620007 22.8319987 226.08380637 23.8145379 229.2275238 25.12442017 C230.88672276 25.49313105 232.5522881 25.8372369 234.2275238 26.12442017 C234.2275238 26.78442017 234.2275238 27.44442017 234.2275238 28.12442017 C235.8672113 28.21723267 235.8672113 28.21723267 237.5400238 28.31192017 C243.28246675 29.02972553 248.0764322 31.61829609 253.2275238 34.12442017 C255.28747798 35.06750092 257.34989573 36.00522357 259.4150238 36.93692017 C261.01919047 37.66608683 262.62335714 38.3952535 264.2275238 39.12442017 C264.2275238 39.78442017 264.2275238 40.44442017 264.2275238 41.12442017 C264.9906488 41.22754517 265.7537738 41.33067017 266.5400238 41.43692017 C269.44843423 42.18093214 270.30082269 42.92247603 272.2275238 45.12442017 C272.8875238 45.45442017 273.5475238 45.78442017 274.2275238 46.12442017 C274.2275238 46.78442017 274.2275238 47.44442017 274.2275238 48.12442017 C274.8462738 48.43379517 275.4650238 48.74317017 276.1025238 49.06192017 C277.4775238 49.74942017 278.8525238 50.43692017 280.2275238 51.12442017 C280.2275238 51.78442017 280.2275238 52.44442017 280.2275238 53.12442017 C280.8875238 53.12442017 281.5475238 53.12442017 282.2275238 53.12442017 C282.3306488 53.76379517 282.4337738 54.40317017 282.5400238 55.06192017 C282.7668988 55.74254517 282.9937738 56.42317017 283.2275238 57.12442017 C284.2175238 57.45442017 285.2075238 57.78442017 286.2275238 58.12442017 C288.2275238 61.12442017 288.2275238 61.12442017 288.2275238 64.12442017 C288.8875238 64.12442017 289.5475238 64.12442017 290.2275238 64.12442017 C290.5575238 66.43442017 290.8875238 68.74442017 291.2275238 71.12442017 C291.8875238 71.12442017 292.5475238 71.12442017 293.2275238 71.12442017 C293.2275238 78.05442017 293.2275238 84.98442017 293.2275238 92.12442017 C292.5675238 92.12442017 291.9075238 92.12442017 291.2275238 92.12442017 C290.8975238 96.08442017 290.5675238 100.04442017 290.2275238 104.12442017 C289.8975238 104.12442017 289.5675238 104.12442017 289.2275238 104.12442017 C289.1037738 105.13504517 288.9800238 106.14567017 288.8525238 107.18692017 C288.2275238 111.12442017 288.2275238 111.12442017 287.2275238 114.56192017 C286.13391456 118.45790308 285.65048048 122.10633171 285.2275238 126.12442017 C284.5675238 126.12442017 283.9075238 126.12442017 283.2275238 126.12442017 C282.8975238 131.07442017 282.5675238 136.02442017 282.2275238 141.12442017 C281.5675238 141.12442017 280.9075238 141.12442017 280.2275238 141.12442017 C279.8975238 145.74442017 279.5675238 150.36442017 279.2275238 155.12442017 C278.5675238 155.12442017 277.9075238 155.12442017 277.2275238 155.12442017 C277.2275238 157.76442017 277.2275238 160.40442017 277.2275238 163.12442017 C276.5675238 163.12442017 275.9075238 163.12442017 275.2275238 163.12442017 C274.8975238 168.07442017 274.5675238 173.02442017 274.2275238 178.12442017 C273.5675238 178.12442017 272.9075238 178.12442017 272.2275238 178.12442017 C271.8975238 183.07442017 271.5675238 188.02442017 271.2275238 193.12442017 C270.8975238 193.12442017 270.5675238 193.12442017 270.2275238 193.12442017 C270.1037738 194.13504517 269.9800238 195.14567017 269.8525238 196.18692017 C269.2275238 200.12442017 269.2275238 200.12442017 268.2275238 203.56192017 C267.13391456 207.45790308 266.65048048 211.10633171 266.2275238 215.12442017 C265.5675238 215.12442017 264.9075238 215.12442017 264.2275238 215.12442017 C263.8975238 220.07442017 263.5675238 225.02442017 263.2275238 230.12442017 C262.5675238 230.12442017 261.9075238 230.12442017 261.2275238 230.12442017 C260.8975238 234.74442017 260.5675238 239.36442017 260.2275238 244.12442017 C259.5675238 244.12442017 258.9075238 244.12442017 258.2275238 244.12442017 C258.2275238 246.76442017 258.2275238 249.40442017 258.2275238 252.12442017 C257.5675238 252.12442017 256.9075238 252.12442017 256.2275238 252.12442017 C255.8975238 257.07442017 255.5675238 262.02442017 255.2275238 267.12442017 C254.5675238 267.12442017 253.9075238 267.12442017 253.2275238 267.12442017 C252.8975238 271.74442017 252.5675238 276.36442017 252.2275238 281.12442017 C251.5675238 281.12442017 250.9075238 281.12442017 250.2275238 281.12442017 C250.2687738 282.30004517 250.3100238 283.47567017 250.3525238 284.68692017 C250.35975118 288.79206967 249.44226146 292.19438656 248.2275238 296.12442017 C248.0625238 297.27942017 247.8975238 298.43442017 247.7275238 299.62442017 C247.2275238 303.12442017 247.2275238 303.12442017 246.2275238 306.56192017 C245.13391456 310.45790308 244.65048048 314.10633171 244.2275238 318.12442017 C243.5675238 318.12442017 242.9075238 318.12442017 242.2275238 318.12442017 C242.16693787 319.0512561 242.10635193 319.97809204 242.04393005 320.93301392 C241.96014099 322.13055298 241.87635193 323.32809204 241.7900238 324.56192017 C241.70881287 325.7568811 241.62760193 326.95184204 241.54393005 328.18301392 C241.2275238 331.12442017 241.2275238 331.12442017 240.2275238 332.12442017 C239.99677298 333.47189101 239.81599318 334.82819582 239.6650238 336.18692017 C239.5206488 337.48629517 239.3762738 338.78567017 239.2275238 340.12442017 C238.5675238 340.12442017 237.9075238 340.12442017 237.2275238 340.12442017 C236.8975238 345.07442017 236.5675238 350.02442017 236.2275238 355.12442017 C235.5675238 355.12442017 234.9075238 355.12442017 234.2275238 355.12442017 C233.8975238 359.74442017 233.5675238 364.36442017 233.2275238 369.12442017 C232.5675238 369.12442017 231.9075238 369.12442017 231.2275238 369.12442017 C231.2584613 370.82598267 231.2584613 370.82598267 231.2900238 372.56192017 C231.2275238 376.12442017 231.2275238 376.12442017 230.2275238 377.12442017 C229.82809204 379.64637984 229.47672532 382.15405673 229.1650238 384.68692017 C229.02870544 385.75329712 229.02870544 385.75329712 228.88963318 386.84121704 C228.66512878 388.60180419 228.44583983 390.36305494 228.2275238 392.12442017 C227.5675238 392.12442017 226.9075238 392.12442017 226.2275238 392.12442017 C225.8975238 397.40442017 225.5675238 402.68442017 225.2275238 408.12442017 C224.5675238 408.12442017 223.9075238 408.12442017 223.2275238 408.12442017 C223.2893988 409.85692017 223.2893988 409.85692017 223.3525238 411.62442017 C223.35904407 415.33444977 222.73565729 418.47217803 221.73924255 422.02676392 C220.84974596 425.67302096 220.55583104 429.39208523 220.2275238 433.12442017 C219.5675238 433.12442017 218.9075238 433.12442017 218.2275238 433.12442017 C218.23912537 433.69289673 218.25072693 434.26137329 218.26268005 434.84707642 C218.31975575 439.73112501 218.04709152 444.30945981 217.2275238 449.12442017 C216.5675238 449.12442017 215.9075238 449.12442017 215.2275238 449.12442017 C214.8975238 451.10442017 214.5675238 453.08442017 214.2275238 455.12442017 C213.5675238 455.12442017 212.9075238 455.12442017 212.2275238 455.12442017 C212.2275238 456.11442017 212.2275238 457.10442017 212.2275238 458.12442017 C211.5675238 458.12442017 210.9075238 458.12442017 210.2275238 458.12442017 C209.8975238 459.44442017 209.5675238 460.76442017 209.2275238 462.12442017 C208.5675238 462.12442017 207.9075238 462.12442017 207.2275238 462.12442017 C206.8975238 463.44442017 206.5675238 464.76442017 206.2275238 466.12442017 C205.5675238 466.12442017 204.9075238 466.12442017 204.2275238 466.12442017 C204.2275238 466.78442017 204.2275238 467.44442017 204.2275238 468.12442017 C202.58299255 469.52676392 202.58299255 469.52676392 200.4150238 471.06192017 C198.32809653 472.54823813 196.41611 473.92936287 194.6337738 475.77285767 C192.68802722 477.64293633 190.84712827 477.77041956 188.2275238 478.12442017 C188.2275238 478.78442017 188.2275238 479.44442017 188.2275238 480.12442017 C186.5775238 480.45442017 184.9275238 480.78442017 183.2275238 481.12442017 C183.2275238 481.78442017 183.2275238 482.44442017 183.2275238 483.12442017 C181.12580513 483.96390837 179.02105755 484.79581672 176.9150238 485.62442017 C175.74326599 486.08848267 174.57150818 486.55254517 173.36424255 487.03067017 C170.2275238 488.12442017 170.2275238 488.12442017 167.2275238 488.12442017 C167.2275238 488.78442017 167.2275238 489.44442017 167.2275238 490.12442017 C164.5875238 490.45442017 161.9475238 490.78442017 159.2275238 491.12442017 C159.2275238 491.78442017 159.2275238 492.44442017 159.2275238 493.12442017 C158.63584412 493.24559204 158.04416443 493.36676392 157.43455505 493.49160767 C156.64435974 493.65918579 155.85416443 493.82676392 155.0400238 493.99942017 C153.87406677 494.24305298 153.87406677 494.24305298 152.68455505 494.49160767 C150.18980027 495.06967237 150.18980027 495.06967237 147.7900238 496.15567017 C144.93184698 497.23620043 142.45640232 497.52956148 139.4150238 497.74942017 C137.95129333 497.8615686 137.95129333 497.8615686 136.45799255 497.97598267 C135.72193787 498.02496704 134.98588318 498.07395142 134.2275238 498.12442017 C134.2275238 498.78442017 134.2275238 499.44442017 134.2275238 500.12442017 C129.6075238 500.45442017 124.9875238 500.78442017 120.2275238 501.12442017 C120.2275238 501.78442017 120.2275238 502.44442017 120.2275238 503.12442017 C114.17922894 504.02046385 108.33806621 504.2371146 102.2275238 504.12442017 C102.2275238 504.78442017 102.2275238 505.44442017 102.2275238 506.12442017 C82.41337345 507.90486241 62.77083026 508.44414831 42.8915863 508.38516235 C39.00646159 508.37376903 35.12161131 508.38053899 31.23649597 508.39206696 C12.13736138 508.43970809 -6.73726741 507.83486898 -25.7724762 506.12442017 C-25.7724762 505.46442017 -25.7724762 504.80442017 -25.7724762 504.12442017 C-27.7215387 504.15535767 -27.7215387 504.15535767 -29.7099762 504.18692017 C-34.46629944 504.19446989 -39.05636573 503.72329134 -43.7724762 503.12442017 C-43.7724762 502.46442017 -43.7724762 501.80442017 -43.7724762 501.12442017 C-44.64130432 501.07543579 -45.51013245 501.02645142 -46.4052887 500.97598267 C-47.55771057 500.90121704 -48.71013245 500.82645142 -49.8974762 500.74942017 C-51.03442932 500.67981079 -52.17138245 500.61020142 -53.3427887 500.53848267 C-56.74460138 500.12778546 -59.55779175 499.27818363 -62.7724762 498.12442017 C-64.26663752 497.76582145 -65.76657027 497.4299663 -67.2724762 497.12442017 C-70.88614461 496.39121208 -74.28145028 495.31119572 -77.7724762 494.12442017 C-80.06220798 493.40985695 -82.35389706 492.70153623 -84.6474762 491.99942017 C-86.37610901 491.46961548 -86.37610901 491.46961548 -88.1396637 490.92910767 C-89.00849182 490.66356079 -89.87731995 490.39801392 -90.7724762 490.12442017 C-90.7724762 489.46442017 -90.7724762 488.80442017 -90.7724762 488.12442017 C-91.61036682 488.03289673 -92.44825745 487.94137329 -93.3115387 487.84707642 C-97.2899104 487.01637804 -100.5851265 485.43977674 -104.1474762 483.56192017 C-104.78814026 483.2325647 -105.42880432 482.90320923 -106.08888245 482.56387329 C-107.65386252 481.75802534 -109.21371641 480.94223523 -110.7724762 480.12442017 C-110.7724762 479.46442017 -110.7724762 478.80442017 -110.7724762 478.12442017 C-111.7934137 477.78410767 -111.7934137 477.78410767 -112.8349762 477.43692017 C-120.64549476 473.947114 -126.76318451 467.98900507 -131.7724762 461.12442017 C-131.7724762 460.46442017 -131.7724762 459.80442017 -131.7724762 459.12442017 C-132.4324762 459.12442017 -133.0924762 459.12442017 -133.7724762 459.12442017 C-133.7724762 458.13442017 -133.7724762 457.14442017 -133.7724762 456.12442017 C-134.4324762 456.12442017 -135.0924762 456.12442017 -135.7724762 456.12442017 C-136.4324762 454.47442017 -137.0924762 452.82442017 -137.7724762 451.12442017 C-138.1024762 451.12442017 -138.4324762 451.12442017 -138.7724762 451.12442017 C-139.1024762 447.16442017 -139.4324762 443.20442017 -139.7724762 439.12442017 C-140.4324762 439.12442017 -141.0924762 439.12442017 -141.7724762 439.12442017 C-141.90524963 438.12539673 -142.03802307 437.12637329 -142.17481995 436.09707642 C-142.43972229 434.16154907 -142.43972229 434.16154907 -142.7099762 432.18692017 C-142.97101135 430.25526001 -142.97101135 430.25526001 -143.23731995 428.28457642 C-143.43410043 425.26975703 -143.43410043 425.26975703 -144.7724762 424.12442017 C-144.81340557 421.79144583 -144.81489343 419.45736792 -144.7724762 417.12442017 C-145.4324762 417.12442017 -146.0924762 417.12442017 -146.7724762 417.12442017 C-147.2674762 409.69942017 -147.2674762 409.69942017 -147.7724762 402.12442017 C-148.4324762 402.12442017 -149.0924762 402.12442017 -149.7724762 402.12442017 C-150.2674762 394.69942017 -150.2674762 394.69942017 -150.7724762 387.12442017 C-151.4324762 387.12442017 -152.0924762 387.12442017 -152.7724762 387.12442017 C-152.7724762 384.48442017 -152.7724762 381.84442017 -152.7724762 379.12442017 C-153.4324762 379.12442017 -154.0924762 379.12442017 -154.7724762 379.12442017 C-155.1024762 374.50442017 -155.4324762 369.88442017 -155.7724762 365.12442017 C-156.4324762 365.12442017 -157.0924762 365.12442017 -157.7724762 365.12442017 C-158.2674762 357.69942017 -158.2674762 357.69942017 -158.7724762 350.12442017 C-159.4324762 350.12442017 -160.0924762 350.12442017 -160.7724762 350.12442017 C-162.29169711 342.81923024 -163.58282533 335.49013087 -164.7724762 328.12442017 C-165.1024762 328.12442017 -165.4324762 328.12442017 -165.7724762 328.12442017 C-166.2674762 320.69942017 -166.2674762 320.69942017 -166.7724762 313.12442017 C-167.4324762 313.12442017 -168.0924762 313.12442017 -168.7724762 313.12442017 C-169.2674762 305.69942017 -169.2674762 305.69942017 -169.7724762 298.12442017 C-170.4324762 298.12442017 -171.0924762 298.12442017 -171.7724762 298.12442017 C-171.7724762 295.48442017 -171.7724762 292.84442017 -171.7724762 290.12442017 C-172.4324762 290.12442017 -173.0924762 290.12442017 -173.7724762 290.12442017 C-174.4324762 285.50442017 -175.0924762 280.88442017 -175.7724762 276.12442017 C-176.1024762 276.12442017 -176.4324762 276.12442017 -176.7724762 276.12442017 C-176.90524963 275.05320923 -177.03802307 273.98199829 -177.17481995 272.87832642 C-177.35298179 271.48116247 -177.53137938 270.08402858 -177.7099762 268.68692017 C-177.79698792 267.97986938 -177.88399963 267.2728186 -177.97364807 266.54434204 C-178.1546381 263.03624048 -178.1546381 263.03624048 -179.7724762 260.12442017 C-180.10580953 257.79108683 -180.43914286 255.4577535 -180.7724762 253.12442017 C-181.1024762 252.79442017 -181.4324762 252.46442017 -181.7724762 252.12442017 C-182.00775392 249.77454755 -182.18634036 247.41885978 -182.3349762 245.06192017 C-182.41876526 243.7715686 -182.50255432 242.48121704 -182.58888245 241.15176392 C-182.64946838 240.15274048 -182.71005432 239.15371704 -182.7724762 238.12442017 C-183.4324762 238.12442017 -184.0924762 238.12442017 -184.7724762 238.12442017 C-185.2674762 230.69942017 -185.2674762 230.69942017 -185.7724762 223.12442017 C-186.4324762 223.12442017 -187.0924762 223.12442017 -187.7724762 223.12442017 C-187.90524963 222.12539673 -188.03802307 221.12637329 -188.17481995 220.09707642 C-188.43972229 218.16154907 -188.43972229 218.16154907 -188.7099762 216.18692017 C-188.88399963 214.89914673 -189.05802307 213.61137329 -189.23731995 212.28457642 C-189.43410043 209.26975703 -189.43410043 209.26975703 -190.7724762 208.12442017 C-190.91362781 205.45383166 -190.81494727 202.80009779 -190.7724762 200.12442017 C-191.4324762 200.12442017 -192.0924762 200.12442017 -192.7724762 200.12442017 C-193.1024762 195.50442017 -193.4324762 190.88442017 -193.7724762 186.12442017 C-194.4324762 186.12442017 -195.0924762 186.12442017 -195.7724762 186.12442017 C-196.2674762 178.69942017 -196.2674762 178.69942017 -196.7724762 171.12442017 C-197.4324762 171.12442017 -198.0924762 171.12442017 -198.7724762 171.12442017 C-198.7724762 168.48442017 -198.7724762 165.84442017 -198.7724762 163.12442017 C-199.4324762 163.12442017 -200.0924762 163.12442017 -200.7724762 163.12442017 C-201.4324762 158.50442017 -202.0924762 153.88442017 -202.7724762 149.12442017 C-203.1024762 149.12442017 -203.4324762 149.12442017 -203.7724762 149.12442017 C-203.90524963 148.05320923 -204.03802307 146.98199829 -204.17481995 145.87832642 C-204.35298179 144.48116247 -204.53137938 143.08402858 -204.7099762 141.68692017 C-204.79698792 140.97986938 -204.88399963 140.2728186 -204.97364807 139.54434204 C-205.1546381 136.03624048 -205.1546381 136.03624048 -206.7724762 133.12442017 C-207.14504671 130.9850504 -207.47097701 128.83745732 -207.7724762 126.68692017 C-208.29365011 122.25892941 -208.29365011 122.25892941 -209.7724762 118.12442017 C-209.8127001 115.79143356 -209.81567867 113.45735351 -209.7724762 111.12442017 C-210.4324762 111.12442017 -211.0924762 111.12442017 -211.7724762 111.12442017 C-212.1024762 106.50442017 -212.4324762 101.88442017 -212.7724762 97.12442017 C-213.4324762 97.12442017 -214.0924762 97.12442017 -214.7724762 97.12442017 C-215.52883687 93.75384567 -215.90058682 90.63519694 -215.9052887 87.18301392 C-215.90657776 86.26971313 -215.90786682 85.35641235 -215.90919495 84.41543579 C-215.90532776 83.47377563 -215.90146057 82.53211548 -215.8974762 81.56192017 C-215.90134338 80.61639282 -215.90521057 79.67086548 -215.90919495 78.69668579 C-215.90790588 77.78467407 -215.90661682 76.87266235 -215.9052887 75.93301392 C-215.90416077 75.10599976 -215.90303284 74.2789856 -215.90187073 73.4269104 C-215.77663755 71.19846874 -215.39132996 69.26336806 -214.7724762 67.12442017 C-214.1124762 67.12442017 -213.4524762 67.12442017 -212.7724762 67.12442017 C-212.4424762 65.14442017 -212.1124762 63.16442017 -211.7724762 61.12442017 C-211.1124762 61.12442017 -210.4524762 61.12442017 -209.7724762 61.12442017 C-209.7724762 60.13442017 -209.7724762 59.14442017 -209.7724762 58.12442017 C-208.16562122 56.31022906 -206.56418313 54.7448917 -204.7724762 53.12442017 C-204.10603088 52.50051392 -203.43958557 51.87660767 -202.75294495 51.23379517 C-189.79785802 39.3450639 -189.79785802 39.3450639 -181.7724762 38.12442017 C-181.7724762 37.46442017 -181.7724762 36.80442017 -181.7724762 36.12442017 C-179.67075753 35.28493197 -177.56600994 34.45302361 -175.4599762 33.62442017 C-174.28821838 33.16035767 -173.11646057 32.69629517 -171.90919495 32.21817017 C-168.7724762 31.12442017 -168.7724762 31.12442017 -165.7724762 31.12442017 C-165.7724762 30.46442017 -165.7724762 29.80442017 -165.7724762 29.12442017 C-161.8124762 28.62942017 -161.8124762 28.62942017 -157.7724762 28.12442017 C-157.7724762 27.46442017 -157.7724762 26.80442017 -157.7724762 26.12442017 C-154.4724762 25.79442017 -151.1724762 25.46442017 -147.7724762 25.12442017 C-147.7724762 24.46442017 -147.7724762 23.80442017 -147.7724762 23.12442017 C-146.84306213 22.93106079 -145.91364807 22.73770142 -144.95606995 22.53848267 C-137.30216772 20.98460464 -137.30216772 20.98460464 -129.7724762 18.93692017 C-126.64528644 18.08997294 -123.99682476 17.96713487 -120.7724762 18.12442017 C-120.7724762 17.46442017 -120.7724762 16.80442017 -120.7724762 16.12442017 C-116.4824762 15.79442017 -112.1924762 15.46442017 -107.7724762 15.12442017 C-107.7724762 14.46442017 -107.7724762 13.80442017 -107.7724762 13.12442017 C-106.70126526 12.99164673 -105.63005432 12.85887329 -104.52638245 12.72207642 C-103.1292185 12.54391457 -101.73208461 12.36551698 -100.3349762 12.18692017 C-99.27440002 12.05640259 -99.27440002 12.05640259 -98.19239807 11.92324829 C-94.68429651 11.74225826 -94.68429651 11.74225826 -91.7724762 10.12442017 C-89.93542102 9.83798952 -88.08930101 9.6092229 -86.2412262 9.40567017 C-85.12103088 9.27805298 -84.00083557 9.15043579 -82.84669495 9.01895142 C-80.46388245 8.75593058 -78.08106995 8.49290975 -75.69825745 8.22988892 C-74.57806213 8.10227173 -73.45786682 7.97465454 -72.3037262 7.84317017 C-71.26796448 7.72908813 -70.23220276 7.6150061 -69.16505432 7.49746704 C-66.82496261 7.37348343 -66.82496261 7.37348343 -65.7724762 6.12442017 C-57.81282969 5.02979985 -49.79091343 4.99646638 -41.7724762 5.12442017 C-41.7724762 4.46442017 -41.7724762 3.80442017 -41.7724762 3.12442017 C-40.71745911 3.06907104 -39.66244202 3.01372192 -38.57545471 2.95669556 C-34.67463876 2.75081142 -30.77417725 2.53878222 -26.87379456 2.32485962 C-25.18313022 2.2330022 -23.49237353 2.14282908 -21.80152893 2.05435181 C-19.37621936 1.92715274 -16.95130254 1.7939714 -14.52638245 1.65957642 C-13.76596146 1.62099014 -13.00554047 1.58240387 -12.22207642 1.54264832 C-7.75180622 1.28765867 -4.51339289 0.00826995 0 0 Z M35.2275238 48.12442017 C35.2275238 48.78442017 35.2275238 49.44442017 35.2275238 50.12442017 C33.99413269 50.11918335 32.76074158 50.11394653 31.48997498 50.10855103 C26.81745662 50.09014975 22.1449413 50.07886286 17.47239685 50.06948853 C15.46815956 50.06452715 13.46392576 50.05775592 11.45970154 50.04898071 C1.07547287 50.00472604 -9.2857933 50.04604442 -19.65919495 50.56582642 C-20.87165642 50.62431007 -20.87165642 50.62431007 -22.10861206 50.68397522 C-25.74493573 50.57621824 -25.74493573 50.57621824 -28.7724762 52.12442017 C-31.3485531 52.41470376 -33.90749627 52.6475934 -36.4912262 52.84317017 C-37.65083862 52.93737244 -37.65083862 52.93737244 -38.83387756 53.03347778 C-42.15484558 53.30311686 -45.47662565 53.56211213 -48.7983551 53.82217407 C-51.21711863 54.01304184 -53.63541108 54.20921593 -56.0537262 54.40567017 C-56.81101013 54.46299316 -57.56829407 54.52031616 -58.348526 54.57937622 C-61.85901088 54.57543854 -61.85901088 54.57543854 -64.7724762 56.12442017 C-66.11049805 56.34955118 -67.45820643 56.51802823 -68.80763245 56.65957642 C-70.02096252 56.79009399 -70.02096252 56.79009399 -71.25880432 56.92324829 C-72.10894104 57.01026001 -72.95907776 57.09727173 -73.8349762 57.18692017 C-74.6889801 57.27779907 -75.54298401 57.36867798 -76.42286682 57.46231079 C-78.53899154 57.68692738 -80.65568514 57.90617244 -82.7724762 58.12442017 C-82.7724762 58.78442017 -82.7724762 59.44442017 -82.7724762 60.12442017 C-83.34095276 60.1128186 -83.90942932 60.10121704 -84.49513245 60.08926392 C-89.37918104 60.03218822 -93.95751584 60.30485245 -98.7724762 61.12442017 C-98.7724762 61.78442017 -98.7724762 62.44442017 -98.7724762 63.12442017 C-100.09312073 63.19789673 -100.09312073 63.19789673 -101.44044495 63.27285767 C-103.18261292 63.3850061 -103.18261292 63.3850061 -104.9599762 63.49942017 C-106.68280823 63.60383423 -106.68280823 63.60383423 -108.44044495 63.71035767 C-111.61401641 64.1047288 -113.85896347 64.87577186 -116.7724762 66.12442017 C-118.533989 66.54101151 -120.30560753 66.91727135 -122.0849762 67.24942017 C-122.96798401 67.41699829 -123.85099182 67.58457642 -124.76075745 67.75723267 C-125.42462463 67.87840454 -126.08849182 67.99957642 -126.7724762 68.12442017 C-126.7724762 68.78442017 -126.7724762 69.44442017 -126.7724762 70.12442017 C-129.7424762 70.45442017 -132.7124762 70.78442017 -135.7724762 71.12442017 C-135.7724762 71.78442017 -135.7724762 72.44442017 -135.7724762 73.12442017 C-139.7324762 73.61942017 -139.7324762 73.61942017 -143.7724762 74.12442017 C-143.7724762 74.78442017 -143.7724762 75.44442017 -143.7724762 76.12442017 C-146.7424762 76.78442017 -149.7124762 77.44442017 -152.7724762 78.12442017 C-152.7724762 78.78442017 -152.7724762 79.44442017 -152.7724762 80.12442017 C-155.2474762 80.61942017 -155.2474762 80.61942017 -157.7724762 81.12442017 C-156.0635512 84.43902722 -156.0635512 84.43902722 -152.6474762 84.81192017 C-151.6987262 84.91504517 -150.7499762 85.01817017 -149.7724762 85.12442017 C-149.7724762 85.78442017 -149.7724762 86.44442017 -149.7724762 87.12442017 C-146.33977128 88.3598033 -142.90566823 89.59101938 -139.4677887 90.81192017 C-137.31458532 91.57669431 -135.16278899 92.34549655 -133.0146637 93.12442017 C-129.14995814 94.48689263 -125.93837491 95.52757165 -121.7724762 95.12442017 C-121.7724762 95.78442017 -121.7724762 96.44442017 -121.7724762 97.12442017 C-118.1424762 97.45442017 -114.5124762 97.78442017 -110.7724762 98.12442017 C-110.7724762 98.78442017 -110.7724762 99.44442017 -110.7724762 100.12442017 C-109.98743713 100.24559204 -109.20239807 100.36676392 -108.39356995 100.49160767 C-107.34298401 100.65918579 -106.29239807 100.82676392 -105.2099762 100.99942017 C-103.6611676 101.24305298 -103.6611676 101.24305298 -102.08106995 101.49160767 C-98.7724762 102.12442017 -98.7724762 102.12442017 -95.4287262 103.15567017 C-91.18118311 104.28108756 -87.20667574 104.56960733 -82.8349762 104.74942017 C-82.05573792 104.78809204 -81.27649963 104.82676392 -80.47364807 104.86660767 C-78.57360241 104.95986144 -76.67307341 105.04317979 -74.7724762 105.12442017 C-74.7724762 105.78442017 -74.7724762 106.44442017 -74.7724762 107.12442017 C-67.7444292 107.97815256 -60.8496955 108.24551327 -53.7724762 108.12442017 C-53.7724762 108.78442017 -53.7724762 109.44442017 -53.7724762 110.12442017 C-44.75422733 111.1943819 -35.83583495 111.22676675 -26.7724762 111.12442017 C-26.7724762 111.78442017 -26.7724762 112.44442017 -26.7724762 113.12442017 C-12.79883175 114.0125802 1.16672193 114.46994763 15.1650238 114.74942017 C16.26426178 114.77187805 17.36349976 114.79433594 18.49604797 114.81747437 C34.27071548 115.12603714 50.01711497 115.14434945 65.7900238 114.74942017 C67.08430801 114.71742523 67.08430801 114.71742523 68.40473938 114.68478394 C77.4014095 114.45189053 86.39179062 114.10530294 95.37986755 113.64785767 C96.15528397 113.61100861 96.93070038 113.57415955 97.72961426 113.53619385 C101.2778732 113.64692211 101.2778732 113.64692211 104.2275238 112.12442017 C106.22368885 111.89560479 108.22706573 111.72910329 110.23143005 111.58926392 C111.44637146 111.5022522 112.66131287 111.41524048 113.91307068 111.32559204 C115.19246521 111.23858032 116.47185974 111.1515686 117.7900238 111.06192017 C119.71491638 110.92560181 119.71491638 110.92560181 121.67869568 110.78652954 C124.86137395 110.5617307 128.04429239 110.34122199 131.2275238 110.12442017 C131.2275238 109.46442017 131.2275238 108.80442017 131.2275238 108.12442017 C131.91717224 108.13602173 132.60682068 108.14762329 133.31736755 108.15957642 C139.38224776 108.21781258 145.22154364 107.996256 151.2275238 107.12442017 C151.5575238 106.79442017 151.8875238 106.46442017 152.2275238 106.12442017 C153.84517149 105.83939184 155.47271239 105.60997372 157.1025238 105.40567017 C158.08736755 105.27805298 159.0722113 105.15043579 160.0868988 105.01895142 C162.1806488 104.75593058 164.2743988 104.49290975 166.3681488 104.22988892 C167.35299255 104.10227173 168.3378363 103.97465454 169.3525238 103.84317017 C170.26260193 103.72908813 171.17268005 103.6150061 172.1103363 103.49746704 C174.20629374 103.3368762 174.20629374 103.3368762 175.2275238 102.12442017 C177.40771859 101.7277579 179.5971701 101.38126779 181.7900238 101.06192017 C182.98756287 100.8853186 184.18510193 100.70871704 185.41893005 100.52676392 C186.34576599 100.39399048 187.27260193 100.26121704 188.2275238 100.12442017 C188.2275238 99.46442017 188.2275238 98.80442017 188.2275238 98.12442017 C191.8575238 97.79442017 195.4875238 97.46442017 199.2275238 97.12442017 C199.2275238 96.46442017 199.2275238 95.80442017 199.2275238 95.12442017 C201.1765863 94.96973267 201.1765863 94.96973267 203.1650238 94.81192017 C208.13990682 94.26963434 212.55334898 92.85142452 217.2275238 91.12442017 C218.7125238 90.62942017 218.7125238 90.62942017 220.2275238 90.12442017 C220.2275238 89.46442017 220.2275238 88.80442017 220.2275238 88.12442017 C222.2075238 87.79442017 224.1875238 87.46442017 226.2275238 87.12442017 C226.2275238 86.46442017 226.2275238 85.80442017 226.2275238 85.12442017 C229.6925238 84.62942017 229.6925238 84.62942017 233.2275238 84.12442017 C233.5575238 83.13442017 233.8875238 82.14442017 234.2275238 81.12442017 C232.6494478 80.28117345 231.0648196 79.45018099 229.4775238 78.62442017 C228.59580505 78.16035767 227.7140863 77.69629517 226.8056488 77.21817017 C224.08055908 75.8640536 224.08055908 75.8640536 220.2275238 76.12442017 C220.2275238 75.46442017 220.2275238 74.80442017 220.2275238 74.12442017 C216.2675238 73.62942017 216.2675238 73.62942017 212.2275238 73.12442017 C212.2275238 72.46442017 212.2275238 71.80442017 212.2275238 71.12442017 C204.99879781 68.76094106 197.74260464 66.66369163 190.3525238 64.87442017 C189.6519989 64.69942993 188.951474 64.5244397 188.22972107 64.34414673 C183.78502349 63.29535637 179.79372335 62.95750948 175.2275238 63.12442017 C175.2275238 62.46442017 175.2275238 61.80442017 175.2275238 61.12442017 C170.14665584 60.27760884 165.37924003 60.03403918 160.2275238 60.12442017 C160.2275238 59.46442017 160.2275238 58.80442017 160.2275238 58.12442017 C158.93975037 57.99164673 157.65197693 57.85887329 156.32518005 57.72207642 C154.64677019 57.54392118 152.96838607 57.36552325 151.2900238 57.18692017 C150.43988708 57.09990845 149.58975037 57.01289673 148.71385193 56.92324829 C147.50052185 56.79273071 147.50052185 56.79273071 146.26268005 56.65957642 C145.51381531 56.58102417 144.76495056 56.50247192 143.99339294 56.42153931 C142.2275238 56.12442017 142.2275238 56.12442017 141.2275238 55.12442017 C138.57859463 54.83398074 135.94642197 54.60110262 133.2900238 54.40567017 C132.49475281 54.34286865 131.69948181 54.28006714 130.88011169 54.21536255 C128.32956466 54.01405625 125.77862598 53.81855703 123.2275238 53.62442017 C119.87293185 53.36913837 116.51887242 53.10801922 113.1650238 52.84317017 C111.99628723 52.75718567 111.99628723 52.75718567 110.80393982 52.66946411 C105.34032561 52.23722198 105.34032561 52.23722198 104.2275238 51.12442017 C101.50624133 50.87703085 98.81076701 50.69709445 96.08299255 50.56582642 C94.81675301 50.50244835 94.81675301 50.50244835 93.52493286 50.43778992 C83.19860143 49.9688316 72.87437938 50.01553066 62.5400238 50.06192017 C60.55499891 50.06695377 58.56997276 50.07151333 56.58494568 50.07559204 C51.79910629 50.08643064 47.01332969 50.10358863 42.2275238 50.12442017 C42.2275238 49.46442017 42.2275238 48.80442017 42.2275238 48.12442017 C39.9175238 48.12442017 37.6075238 48.12442017 35.2275238 48.12442017 Z M-150.7724762 139.12442017 C-150.7724762 139.78442017 -150.7724762 140.44442017 -150.7724762 141.12442017 C-150.1124762 141.12442017 -149.4524762 141.12442017 -148.7724762 141.12442017 C-148.4424762 145.74442017 -148.1124762 150.36442017 -147.7724762 155.12442017 C-147.1124762 155.12442017 -146.4524762 155.12442017 -145.7724762 155.12442017 C-145.7931012 156.30004517 -145.8137262 157.47567017 -145.8349762 158.68692017 C-145.84194881 162.59855483 -145.41497962 166.26939961 -144.7724762 170.12442017 C-144.1124762 170.12442017 -143.4524762 170.12442017 -142.7724762 170.12442017 C-142.8137262 171.30004517 -142.8549762 172.47567017 -142.8974762 173.68692017 C-142.90469579 177.79486891 -141.96798381 181.18627745 -140.7724762 185.12442017 C-140.34494073 187.788295 -140.05508851 190.43960322 -139.7724762 193.12442017 C-139.1124762 193.12442017 -138.4524762 193.12442017 -137.7724762 193.12442017 C-137.4424762 198.07442017 -137.1124762 203.02442017 -136.7724762 208.12442017 C-136.1124762 208.12442017 -135.4524762 208.12442017 -134.7724762 208.12442017 C-134.71189026 209.1234436 -134.65130432 210.12246704 -134.58888245 211.15176392 C-134.50509338 212.44211548 -134.42130432 213.73246704 -134.3349762 215.06192017 C-134.25376526 216.3496936 -134.17255432 217.63746704 -134.08888245 218.96426392 C-134.12328432 221.98465973 -134.12328432 221.98465973 -132.7724762 223.12442017 C-132.40486889 225.4525998 -132.07006039 227.78625867 -131.7724762 230.12442017 C-131.1124762 230.12442017 -130.4524762 230.12442017 -129.7724762 230.12442017 C-129.7931012 231.30004517 -129.8137262 232.47567017 -129.8349762 233.68692017 C-129.84194881 237.59855483 -129.41497962 241.26939961 -128.7724762 245.12442017 C-128.1124762 245.12442017 -127.4524762 245.12442017 -126.7724762 245.12442017 C-126.7931012 246.30004517 -126.8137262 247.47567017 -126.8349762 248.68692017 C-126.84194881 252.59855483 -126.41497962 256.26939961 -125.7724762 260.12442017 C-125.1124762 260.12442017 -124.4524762 260.12442017 -123.7724762 260.12442017 C-123.8137262 261.30004517 -123.8549762 262.47567017 -123.8974762 263.68692017 C-123.90469579 267.79486891 -122.96798381 271.18627745 -121.7724762 275.12442017 C-121.34494073 277.788295 -121.05508851 280.43960322 -120.7724762 283.12442017 C-120.4424762 283.12442017 -120.1124762 283.12442017 -119.7724762 283.12442017 C-119.1124762 287.74442017 -118.4524762 292.36442017 -117.7724762 297.12442017 C-117.1124762 297.12442017 -116.4524762 297.12442017 -115.7724762 297.12442017 C-115.8652887 298.64035767 -115.8652887 298.64035767 -115.9599762 300.18692017 C-115.99655638 306.92986792 -114.20675356 313.56772365 -112.7724762 320.12442017 C-112.1124762 320.12442017 -111.4524762 320.12442017 -110.7724762 320.12442017 C-110.7724762 320.97004517 -110.7724762 321.81567017 -110.7724762 322.68692017 C-109.31792665 327.68693423 -105.94923126 330.17468848 -101.7724762 333.12442017 C-100.7824762 333.45442017 -99.7924762 333.78442017 -98.7724762 334.12442017 C-98.7724762 334.78442017 -98.7724762 335.44442017 -98.7724762 336.12442017 C-97.05446338 337.4907967 -97.05446338 337.4907967 -94.8974762 338.74942017 C-94.17817932 339.19543579 -93.45888245 339.64145142 -92.7177887 340.10098267 C-90.84382857 341.27962015 -90.84382857 341.27962015 -88.7724762 341.12442017 C-88.7724762 341.78442017 -88.7724762 342.44442017 -88.7724762 343.12442017 C-86.7924762 343.45442017 -84.8124762 343.78442017 -82.7724762 344.12442017 C-82.7724762 344.78442017 -82.7724762 345.44442017 -82.7724762 346.12442017 C-77.37788181 349.20909515 -72.98235749 350.68085722 -66.7724762 351.12442017 C-66.7724762 351.78442017 -66.7724762 352.44442017 -66.7724762 353.12442017 C-64.1324762 353.45442017 -61.4924762 353.78442017 -58.7724762 354.12442017 C-58.7724762 354.78442017 -58.7724762 355.44442017 -58.7724762 356.12442017 C-55.42152473 356.97105217 -52.06627932 357.79928252 -48.7099762 358.62442017 C-47.76702698 358.86289673 -46.82407776 359.10137329 -45.85255432 359.34707642 C-40.68359734 360.60779763 -36.09312889 361.41960201 -30.7724762 361.12442017 C-30.7724762 361.78442017 -30.7724762 362.44442017 -30.7724762 363.12442017 C-24.39888909 364.08647105 -18.2131809 364.23097594 -11.7724762 364.12442017 C-11.7724762 364.78442017 -11.7724762 365.44442017 -11.7724762 366.12442017 C-0.92840774 367.09948699 9.88891721 367.42843362 20.76707458 367.67666626 C22.96755561 367.72810362 25.16782844 367.78532196 27.3681488 367.84317017 C28.66268982 367.87346313 29.95723083 367.9037561 31.29100037 367.93496704 C34.2275238 368.12442017 34.2275238 368.12442017 35.2275238 369.12442017 C38.2275238 369.29108683 38.2275238 369.29108683 41.2275238 369.12442017 C41.5575238 368.79442017 41.8875238 368.46442017 42.2275238 368.12442017 C44.51115563 367.97708908 46.79914558 367.89670484 49.0868988 367.84317017 C49.78712158 367.82476074 50.48734436 367.80635132 51.20878601 367.78738403 C53.46494389 367.7284837 55.72118545 367.67590837 57.9775238 367.62442017 C68.09229353 367.38692173 78.14435393 367.03106923 88.2275238 366.12442017 C88.2275238 365.46442017 88.2275238 364.80442017 88.2275238 364.12442017 C89.2793988 364.14182251 89.2793988 364.14182251 90.3525238 364.15957642 C96.08865483 364.21413201 101.55530633 363.98060394 107.2275238 363.12442017 C107.2275238 362.46442017 107.2275238 361.80442017 107.2275238 361.12442017 C108.12213318 361.08703735 109.01674255 361.04965454 109.9384613 361.01113892 C117.50236154 360.59988208 124.08392024 359.58588656 131.2275238 357.12442017 C132.55728944 356.77712742 133.88968987 356.43920462 135.2275238 356.12442017 C135.2275238 355.46442017 135.2275238 354.80442017 135.2275238 354.12442017 C137.8675238 353.79442017 140.5075238 353.46442017 143.2275238 353.12442017 C143.2275238 352.46442017 143.2275238 351.80442017 143.2275238 351.12442017 C144.8672113 350.90785767 144.8672113 350.90785767 146.5400238 350.68692017 C150.15875367 350.24153912 150.15875367 350.24153912 153.2275238 349.12442017 C153.2275238 348.46442017 153.2275238 347.80442017 153.2275238 347.12442017 C155.2075238 346.79442017 157.1875238 346.46442017 159.2275238 346.12442017 C159.2275238 345.46442017 159.2275238 344.80442017 159.2275238 344.12442017 C160.8775238 343.79442017 162.5275238 343.46442017 164.2275238 343.12442017 C164.2275238 342.46442017 164.2275238 341.80442017 164.2275238 341.12442017 C164.95326599 341.0303186 165.67900818 340.93621704 166.42674255 340.83926392 C169.65816931 340.01450646 171.44384124 338.7578386 174.0400238 336.68692017 C174.83021912 336.06945923 175.62041443 335.45199829 176.43455505 334.81582642 C177.32207458 333.97858032 177.32207458 333.97858032 178.2275238 333.12442017 C178.2275238 332.46442017 178.2275238 331.80442017 178.2275238 331.12442017 C179.2175238 330.79442017 180.2075238 330.46442017 181.2275238 330.12442017 C181.2275238 329.46442017 181.2275238 328.80442017 181.2275238 328.12442017 C181.8256488 327.85629517 182.4237738 327.58817017 183.0400238 327.31192017 C185.32547799 326.07124504 186.6681666 325.20356311 188.2275238 323.12442017 C189.4198446 318.46352977 189.30987928 313.90103764 189.2275238 309.12442017 C189.8875238 309.12442017 190.5475238 309.12442017 191.2275238 309.12442017 C191.3718988 307.82504517 191.5162738 306.52567017 191.6650238 305.18692017 C192.1025238 301.24942017 192.1025238 301.24942017 193.2275238 300.12442017 C194.1587217 295.05456496 194.31750305 290.25323713 194.2275238 285.12442017 C194.8875238 285.12442017 195.5475238 285.12442017 196.2275238 285.12442017 C197.07433513 280.0435522 197.31790479 275.27613639 197.2275238 270.12442017 C197.8875238 270.12442017 198.5475238 270.12442017 199.2275238 270.12442017 C199.36029724 269.12539673 199.49307068 268.12637329 199.62986755 267.09707642 C199.80646912 265.80672485 199.98307068 264.51637329 200.1650238 263.18692017 C200.33904724 261.89914673 200.51307068 260.61137329 200.69236755 259.28457642 C201.2275238 256.12442017 201.2275238 256.12442017 202.2275238 255.12442017 C202.46156711 253.18520422 202.69302345 251.24561695 202.9072113 249.30410767 C203.2275238 247.12442017 203.2275238 247.12442017 204.2900238 243.62442017 C205.37735463 239.56505176 205.37430537 236.3076948 205.2275238 232.12442017 C205.8875238 232.12442017 206.5475238 232.12442017 207.2275238 232.12442017 C207.5575238 227.50442017 207.8875238 222.88442017 208.2275238 218.12442017 C208.8875238 218.12442017 209.5475238 218.12442017 210.2275238 218.12442017 C210.3512738 217.11379517 210.4750238 216.10317017 210.6025238 215.06192017 C211.2275238 211.12442017 211.2275238 211.12442017 212.2900238 207.68692017 C213.36524087 203.60109531 213.37505573 200.32908 213.2275238 196.12442017 C213.8875238 196.12442017 214.5475238 196.12442017 215.2275238 196.12442017 C215.5575238 191.50442017 215.8875238 186.88442017 216.2275238 182.12442017 C216.8875238 182.12442017 217.5475238 182.12442017 218.2275238 182.12442017 C218.73673709 179.93904649 219.23446817 177.75099586 219.7275238 175.56192017 C220.0059613 174.3437561 220.2843988 173.12559204 220.5712738 171.87051392 C221.21389935 168.2021931 221.34227203 164.83939414 221.2275238 161.12442017 C221.8875238 161.12442017 222.5475238 161.12442017 223.2275238 161.12442017 C223.5575238 156.50442017 223.8875238 151.88442017 224.2275238 147.12442017 C224.8875238 147.12442017 225.5475238 147.12442017 226.2275238 147.12442017 C226.5575238 144.48442017 226.8875238 141.84442017 227.2275238 139.12442017 C224.9175238 139.45442017 222.6075238 139.78442017 220.2275238 140.12442017 C220.2275238 140.78442017 220.2275238 141.44442017 220.2275238 142.12442017 C216.5975238 142.45442017 212.9675238 142.78442017 209.2275238 143.12442017 C209.2275238 143.78442017 209.2275238 144.44442017 209.2275238 145.12442017 C208.03256287 145.19789673 208.03256287 145.19789673 206.8134613 145.27285767 C205.75385193 145.34762329 204.69424255 145.42238892 203.6025238 145.49942017 C202.03631287 145.60383423 202.03631287 145.60383423 200.4384613 145.71035767 C197.13836021 146.13591815 194.3705641 147.05513842 191.2275238 148.12442017 C188.94392415 148.54576771 186.65133086 148.92101916 184.3525238 149.24942017 C183.20010193 149.41699829 182.04768005 149.58457642 180.8603363 149.75723267 C179.99150818 149.87840454 179.12268005 149.99957642 178.2275238 150.12442017 C178.2275238 150.78442017 178.2275238 151.44442017 178.2275238 152.12442017 C177.65904724 152.1128186 177.09057068 152.10121704 176.50486755 152.08926392 C171.62081896 152.03218822 167.04248416 152.30485245 162.2275238 153.12442017 C162.2275238 153.78442017 162.2275238 154.44442017 162.2275238 155.12442017 C161.61006287 155.1128186 160.99260193 155.10121704 160.35643005 155.08926392 C154.55360088 155.02743773 148.97576519 155.30324283 143.2275238 156.12442017 C142.8975238 156.45442017 142.5675238 156.78442017 142.2275238 157.12442017 C139.50574016 157.41500746 136.80035087 157.64787338 134.0712738 157.84317017 C133.25380676 157.90597168 132.43633972 157.96877319 131.59410095 158.03347778 C128.08194496 158.30315371 124.569017 158.56212721 121.05613708 158.82217407 C118.4983912 159.01302236 115.94109337 159.20920532 113.3837738 159.40567017 C112.58274231 159.46299316 111.78171082 159.52031616 110.95640564 159.57937622 C107.28453251 159.54433475 107.28453251 159.54433475 104.2275238 161.12442017 C101.13953934 161.3680098 98.07314282 161.54729644 94.97972107 161.67861938 C94.03466737 161.72072981 93.08961367 161.76284023 92.11592197 161.80622673 C82.14079641 162.21896016 72.17450703 162.2698359 62.19236755 162.25723267 C60.2524718 162.25790964 58.31257613 162.25888291 56.37268066 162.26013184 C52.34503862 162.26158998 48.31741905 162.25951565 44.28977966 162.25479126 C39.18840975 162.24909129 34.08709245 162.25238687 28.98572445 162.25836372 C24.99172587 162.26201752 20.9977393 162.26080897 17.00374031 162.25823593 C15.12512264 162.25758011 13.24650379 162.25834658 11.3678875 162.26071548 C1.56170008 162.27037612 -8.21976674 162.13779652 -18.01637268 161.67861938 C-18.88139184 161.63989779 -19.746411 161.60117619 -20.63764286 161.5612812 C-26.64942853 161.24746783 -26.64942853 161.24746783 -27.7724762 160.12442017 C-30.49425984 159.83383287 -33.19964913 159.60096696 -35.9287262 159.40567017 C-36.74619324 159.34286865 -37.56366028 159.28006714 -38.40589905 159.21536255 C-41.02778364 159.01404485 -43.65005014 158.81854968 -46.2724762 158.62442017 C-49.72080772 158.36915161 -53.16861969 158.10803088 -56.6162262 157.84317017 C-57.41725769 157.78584717 -58.21828918 157.72852417 -59.04359436 157.66946411 C-64.65967439 157.23722198 -64.65967439 157.23722198 -65.7724762 156.12442017 C-72.14136359 155.21457911 -78.34597085 155.00367163 -84.7724762 155.12442017 C-84.7724762 154.46442017 -84.7724762 153.80442017 -84.7724762 153.12442017 C-90.0524762 152.79442017 -95.3324762 152.46442017 -100.7724762 152.12442017 C-100.7724762 151.46442017 -100.7724762 150.80442017 -100.7724762 150.12442017 C-101.62970276 150.00324829 -102.48692932 149.88207642 -103.37013245 149.75723267 C-109.33219683 148.88342391 -114.98973392 147.83782528 -120.7724762 146.12442017 C-122.62375981 145.77543003 -124.47829005 145.44342128 -126.3349762 145.12442017 C-130.31332192 144.43868616 -133.94201473 143.40124066 -137.7724762 142.12442017 C-140.52312852 141.95584534 -140.52312852 141.95584534 -142.7724762 142.12442017 C-142.7724762 141.46442017 -142.7724762 140.80442017 -142.7724762 140.12442017 C-145.4124762 139.79442017 -148.0524762 139.46442017 -150.7724762 139.12442017 Z M-96.7724762 393.12442017 C-95.7824762 398.40442017 -94.7924762 403.68442017 -93.7724762 409.12442017 C-93.1124762 409.12442017 -92.4524762 409.12442017 -91.7724762 409.12442017 C-91.4424762 413.74442017 -91.1124762 418.36442017 -90.7724762 423.12442017 C-90.1124762 423.12442017 -89.4524762 423.12442017 -88.7724762 423.12442017 C-88.8549762 424.34129517 -88.9374762 425.55817017 -89.0224762 426.81192017 C-89.03454677 430.20978606 -88.7927321 431.09201072 -86.8974762 434.12442017 C-85.01610193 436.35287507 -85.01610193 436.35287507 -82.7724762 436.12442017 C-82.7724762 436.78442017 -82.7724762 437.44442017 -82.7724762 438.12442017 C-81.00492093 438.96468413 -79.23330357 439.79640738 -77.4599762 440.62442017 C-76.47384338 441.08848267 -75.48771057 441.55254517 -74.47169495 442.03067017 C-71.79447493 443.31219488 -71.79447493 443.31219488 -68.7724762 443.12442017 C-68.7724762 443.78442017 -68.7724762 444.44442017 -68.7724762 445.12442017 C-66.1324762 445.45442017 -63.4924762 445.78442017 -60.7724762 446.12442017 C-60.7724762 446.78442017 -60.7724762 447.44442017 -60.7724762 448.12442017 C-57.4724762 448.45442017 -54.1724762 448.78442017 -50.7724762 449.12442017 C-50.7724762 449.78442017 -50.7724762 450.44442017 -50.7724762 451.12442017 C-49.48470276 451.3293811 -48.19692932 451.53434204 -46.87013245 451.74551392 C-45.19171257 452.01743669 -43.513329 452.28958367 -41.8349762 452.56192017 C-40.98483948 452.6966272 -40.13470276 452.83133423 -39.25880432 452.97012329 C-38.4499176 453.1022522 -37.64103088 453.2343811 -36.80763245 453.37051392 C-35.68433533 453.55118408 -35.68433533 453.55118408 -34.53834534 453.73550415 C-32.7724762 454.12442017 -32.7724762 454.12442017 -31.7724762 455.12442017 C-30.36126718 455.350132 -28.94071577 455.51830365 -27.51856995 455.65957642 C-26.66456604 455.74658813 -25.81056213 455.83359985 -24.93067932 455.92324829 C-24.03284729 456.01026001 -23.13501526 456.09727173 -22.2099762 456.18692017 C-21.30827698 456.27779907 -20.40657776 456.36867798 -19.47755432 456.46231079 C-17.24289186 456.6869594 -15.00789781 456.90747785 -12.7724762 457.12442017 C-12.7724762 457.45442017 -12.7724762 457.78442017 -12.7724762 458.12442017 C-2.11943956 459.07218782 8.41758759 459.24722918 19.1025238 459.18692017 C20.67674111 459.18188812 22.25095999 459.17732827 23.82518005 459.17324829 C27.62600148 459.16239376 31.42674436 459.14522618 35.2275238 459.12442017 C35.2275238 459.78442017 35.2275238 460.44442017 35.2275238 461.12442017 C37.2075238 461.12442017 39.1875238 461.12442017 41.2275238 461.12442017 C41.2275238 460.46442017 41.2275238 459.80442017 41.2275238 459.12442017 C42.18416931 459.12965698 43.14081482 459.1348938 44.12644958 459.14028931 C47.74590585 459.15867193 51.36535818 459.169971 54.98484802 459.17935181 C56.53824054 459.18431728 58.09162856 459.1910919 59.64500427 459.19985962 C69.56293325 459.25435373 79.34046715 459.00404095 89.2275238 458.12442017 C89.2275238 457.46442017 89.2275238 456.80442017 89.2275238 456.12442017 C89.91717224 456.13602173 90.60682068 456.14762329 91.31736755 456.15957642 C97.38224776 456.21781258 103.22154364 455.996256 109.2275238 455.12442017 C109.5575238 454.79442017 109.8875238 454.46442017 110.2275238 454.12442017 C111.56382497 453.83011244 112.91171603 453.58780184 114.26268005 453.37051392 C115.07156677 453.23838501 115.88045349 453.1062561 116.71385193 452.97012329 C117.56398865 452.83541626 118.41412537 452.70070923 119.2900238 452.56192017 C120.14402771 452.42334595 120.99803162 452.28477173 121.87791443 452.14199829 C123.99386831 451.79919012 126.11062499 451.461344 128.2275238 451.12442017 C128.2275238 450.46442017 128.2275238 449.80442017 128.2275238 449.12442017 C131.5275238 448.79442017 134.8275238 448.46442017 138.2275238 448.12442017 C138.2275238 447.46442017 138.2275238 446.80442017 138.2275238 446.12442017 C140.8675238 445.79442017 143.5075238 445.46442017 146.2275238 445.12442017 C146.2275238 444.46442017 146.2275238 443.80442017 146.2275238 443.12442017 C147.0731488 443.04192017 147.9187738 442.95942017 148.7900238 442.87442017 C152.94865871 441.96708164 155.62335079 440.35900743 159.2275238 438.12442017 C159.2275238 437.46442017 159.2275238 436.80442017 159.2275238 436.12442017 C160.01514099 435.93106079 160.80275818 435.73770142 161.61424255 435.53848267 C164.51724707 434.33370521 164.51724707 434.33370521 165.37205505 431.14785767 C165.59248474 429.94387329 165.81291443 428.73988892 166.0400238 427.49942017 C166.26947693 426.24645142 166.49893005 424.99348267 166.7353363 423.70254517 C167.28059679 419.73858801 167.46672644 416.11113079 167.2275238 412.12442017 C167.8875238 412.12442017 168.5475238 412.12442017 169.2275238 412.12442017 C170.18013868 407.36134579 170.31085738 402.95776737 170.2275238 398.12442017 C170.8875238 398.12442017 171.5475238 398.12442017 172.2275238 398.12442017 C171.8975238 396.80442017 171.5675238 395.48442017 171.2275238 394.12442017 C167.43448655 395.12635453 164.5121604 395.93466244 161.2275238 398.12442017 C159.57202849 398.50941908 157.9052805 398.85235151 156.2275238 399.12442017 C156.2275238 399.78442017 156.2275238 400.44442017 156.2275238 401.12442017 C155.0106488 401.24817017 153.7937738 401.37192017 152.5400238 401.49942017 C150.06056965 401.75156805 148.14554465 402.15742476 145.8212738 403.09317017 C143.01754095 404.20790732 140.38669338 404.7481747 137.4150238 405.24942017 C136.43920349 405.41699829 135.46338318 405.58457642 134.45799255 405.75723267 C133.35391052 405.93899048 133.35391052 405.93899048 132.2275238 406.12442017 C132.2275238 406.78442017 132.2275238 407.44442017 132.2275238 408.12442017 C125.7925238 408.61942017 125.7925238 408.61942017 119.2275238 409.12442017 C119.2275238 409.78442017 119.2275238 410.44442017 119.2275238 411.12442017 C117.4041449 411.21529907 117.4041449 411.21529907 115.54393005 411.30801392 C113.95928153 411.39240348 112.37464679 411.47705227 110.7900238 411.56192017 C109.9875824 411.60123657 109.18514099 411.64055298 108.35838318 411.68106079 C104.47512819 411.52984976 104.47512819 411.52984976 101.2275238 413.12442017 C82.25515676 416.0211397 62.59198358 415.44044183 43.45042419 415.38516235 C39.46193591 415.37375911 35.47371444 415.38054989 31.48523521 415.3920517 C-8.01373527 415.48837807 -8.01373527 415.48837807 -22.7724762 413.12442017 C-23.1024762 412.79442017 -23.4324762 412.46442017 -23.7724762 412.12442017 C-26.63125529 411.88740777 -29.47130917 411.70222835 -32.3349762 411.56192017 C-33.14128479 411.51873657 -33.94759338 411.47555298 -34.77833557 411.43106079 C-36.77616424 411.32466755 -38.77429689 411.22401129 -40.7724762 411.12442017 C-40.7724762 410.46442017 -40.7724762 409.80442017 -40.7724762 409.12442017 C-41.64130432 409.00324829 -42.51013245 408.88207642 -43.4052887 408.75723267 C-44.55771057 408.58965454 -45.71013245 408.42207642 -46.8974762 408.24942017 C-48.60290588 408.00578735 -48.60290588 408.00578735 -50.3427887 407.75723267 C-53.65238332 407.14657853 -56.59937744 406.23093666 -59.7724762 405.12442017 C-62.31078487 404.39538812 -64.84775811 403.68510132 -67.3974762 402.99942017 C-68.05231995 402.81766235 -68.7071637 402.63590454 -69.3818512 402.44863892 C-72.67739243 401.56137782 -75.32561004 401.12442017 -78.7724762 401.12442017 C-78.7724762 400.46442017 -78.7724762 399.80442017 -78.7724762 399.12442017 C-81.4124762 398.79442017 -84.0524762 398.46442017 -86.7724762 398.12442017 C-86.7724762 397.46442017 -86.7724762 396.80442017 -86.7724762 396.12442017 C-89.0824762 395.79442017 -91.3924762 395.46442017 -93.7724762 395.12442017 C-93.7724762 394.46442017 -93.7724762 393.80442017 -93.7724762 393.12442017 C-94.7624762 393.12442017 -95.7524762 393.12442017 -96.7724762 393.12442017 Z " fill="#FEFEFE" transform="translate(216.77247619628906,2.875579833984375)"/>
<path d="M0 0 C0 0.66 0 1.32 0 2 C2.64 2.33 5.28 2.66 8 3 C8 3.66 8 4.32 8 5 C8.804375 5.04125 9.60875 5.0825 10.4375 5.125 C18.57566789 7.12384825 24.98153429 13.41627674 31 19 C31.825 19.763125 32.65 20.52625 33.5 21.3125 C35 23 35 23 35 25 C35.66 25 36.32 25 37 25 C37 25.66 37 26.32 37 27 C37.66 27 38.32 27 39 27 C39.33 28.32 39.66 29.64 40 31 C40.66 31 41.32 31 42 31 C42.33 32.98 42.66 34.96 43 37 C43.66 37 44.32 37 45 37 C48 43.5 48 43.5 48 48 C48.66 48 49.32 48 50 48 C50.7817907 52.14574214 51.12833218 56.06462776 51.1328125 60.28125 C51.13410156 61.45300781 51.13539063 62.62476563 51.13671875 63.83203125 C51.13285156 65.04246094 51.12898437 66.25289063 51.125 67.5 C51.12886719 68.71042969 51.13273438 69.92085938 51.13671875 71.16796875 C51.13478516 72.92560547 51.13478516 72.92560547 51.1328125 74.71875 C51.13168457 75.78029297 51.13055664 76.84183594 51.12939453 77.93554688 C50.99867684 81.03133648 50.57369487 83.95776506 50 87 C49.34 87 48.68 87 48 87 C47.814375 88.60875 47.814375 88.60875 47.625 90.25 C47.10356064 93.37863615 46.59911746 95.33480424 45 98 C44.34 98 43.68 98 43 98 C42.67 99.98 42.34 101.96 42 104 C41.34 104 40.68 104 40 104 C39.67 105.32 39.34 106.64 39 108 C38.34 108 37.68 108 37 108 C37 108.66 37 109.32 37 110 C36.34 110 35.68 110 35 110 C34.77054688 110.56332031 34.54109375 111.12664062 34.3046875 111.70703125 C32.65068125 114.61392248 30.61103363 116.45597129 28.125 118.6875 C27.26132812 119.47511719 26.39765625 120.26273437 25.5078125 121.07421875 C23.18721902 122.85623213 21.84989312 123.60896815 19 124 C19 124.66 19 125.32 19 126 C17.35 126.33 15.7 126.66 14 127 C14 127.66 14 128.32 14 129 C12.02 129.33 10.04 129.66 8 130 C8 130.66 8 131.32 8 132 C6.52221589 132.46277164 5.04266785 132.91991034 3.5625 133.375 C2.73878906 133.63023437 1.91507812 133.88546875 1.06640625 134.1484375 C0.05449219 134.42945313 -0.95742188 134.71046875 -2 135 C-2.60271729 135.17789063 -3.20543457 135.35578125 -3.82641602 135.5390625 C-11.170702 137.47018125 -18.51345411 137.2942543 -26.0625 137.25 C-27.3990923 137.25713974 -28.73568121 137.26494814 -30.07226562 137.2734375 C-36.7465369 137.2600689 -42.63070165 137.02258319 -49 135 C-49.89847656 134.75378906 -50.79695313 134.50757813 -51.72265625 134.25390625 C-56.65383557 132.79677981 -61.32153395 131.13582146 -66 129 C-66 128.34 -66 127.68 -66 127 C-67.1446875 126.8453125 -67.1446875 126.8453125 -68.3125 126.6875 C-71.36332962 125.90705521 -71.86693002 125.20350154 -74 123 C-76.61802136 120.91795152 -79.2654034 118.87765146 -81.91796875 116.83984375 C-82.60503906 116.23269531 -83.29210937 115.62554687 -84 115 C-84 114.34 -84 113.68 -84 113 C-85.485 112.505 -85.485 112.505 -87 112 C-90 108.55555556 -90 108.55555556 -90 106 C-90.66 106 -91.32 106 -92 106 C-92.495 103.525 -92.495 103.525 -93 101 C-93.66 101 -94.32 101 -95 101 C-97.03435531 97.27034861 -98 95.33094958 -98 91 C-98.66 91 -99.32 91 -100 91 C-100.33 87.7 -100.66 84.4 -101 81 C-101.66 81 -102.32 81 -103 81 C-103 72.09 -103 63.18 -103 54 C-102.34 54 -101.68 54 -101 54 C-100.67 50.7 -100.34 47.4 -100 44 C-99.34 44 -98.68 44 -98 44 C-97.67 41.69 -97.34 39.38 -97 37 C-96.34 37 -95.68 37 -95 37 C-95 36.01 -95 35.02 -95 34 C-94.34 34 -93.68 34 -93 34 C-92.67 32.35 -92.34 30.7 -92 29 C-91.34 29 -90.68 29 -90 29 C-89.566875 28.1028125 -89.566875 28.1028125 -89.125 27.1875 C-88 25 -88 25 -86 22 C-85.34 22 -84.68 22 -84 22 C-83.75121094 21.40316406 -83.50242188 20.80632812 -83.24609375 20.19140625 C-81.81681368 17.67784475 -80.42041957 16.58409188 -78.0625 14.9375 C-76.01353652 13.49365097 -74.1577639 12.16320404 -72.4140625 10.359375 C-70.46332932 8.48408454 -68.62702149 8.3550029 -66 8 C-66 7.34 -66 6.68 -66 6 C-64.02 5.67 -62.04 5.34 -60 5 C-60 4.34 -60 3.68 -60 3 C-57.36 2.67 -54.72 2.34 -52 2 C-52 1.34 -52 0.68 -52 0 C-34.56059968 -4.14401592 -17.40994534 -4.49288912 0 0 Z M-27 45 C-27 45.66 -27 46.32 -27 47 C-28.98567708 46.96744792 -30.97135417 46.93489583 -32.95703125 46.90234375 C-35.20305461 46.91736783 -35.20305461 46.91736783 -38 48 C-38 48.66 -38 49.32 -38 50 C-39.32 50.33 -40.64 50.66 -42 51 C-42 51.66 -42 52.32 -42 53 C-42.99 53.33 -43.98 53.66 -45 54 C-45 54.66 -45 55.32 -45 56 C-45.66 56 -46.32 56 -47 56 C-49.85888741 62.68688919 -50.23852969 67.85234068 -49 75 C-48.34 75 -47.68 75 -47 75 C-46.814375 75.8971875 -46.814375 75.8971875 -46.625 76.8125 C-46.04524015 79.26231348 -46.04524015 79.26231348 -44 82 C-43.34 82 -42.68 82 -42 82 C-42 82.66 -42 83.32 -42 84 C-40.68 84.33 -39.36 84.66 -38 85 C-38 85.66 -38 86.32 -38 87 C-29.52441979 89.20806699 -22.53881556 88.76477905 -14 87 C-14 86.34 -14 85.68 -14 85 C-13.2575 84.95875 -12.515 84.9175 -11.75 84.875 C-7.87195699 83.64107722 -6.91706439 81.47911685 -5 78 C-5 77.34 -5 76.68 -5 76 C-4.34 76 -3.68 76 -3 76 C-2.22686955 70.0885256 -1.85180723 64.8685408 -3 59 C-3.66 59 -4.32 59 -5 59 C-5.061875 58.443125 -5.12375 57.88625 -5.1875 57.3125 C-6.70943576 52.98083667 -10.05251271 50.61060292 -13.8125 48.1875 C-17.82452966 46.69282228 -20.74242161 46.77978043 -25 47 C-25 46.34 -25 45.68 -25 45 C-25.66 45 -26.32 45 -27 45 Z " fill="#FEFEFE" transform="translate(281,190)"/>
</svg>
