<?xml version="1.0" encoding="UTF-8"?>
<svg version="1.1" xmlns="http://www.w3.org/2000/svg" width="512" height="512">
<path d="M0 0 C168.96 0 337.92 0 512 0 C512 168.96 512 337.92 512 512 C343.04 512 174.08 512 0 512 C0 343.04 0 174.08 0 0 Z " fill="#010101" transform="translate(0,0)"/>
<path d="M0 0 C0.90857758 -0.00167175 1.81715515 -0.00334351 2.75326538 -0.00506592 C16.39999647 -0.00656891 29.64570784 0.59934172 43.12841797 2.8828125 C45.00809619 3.19882368 46.89623011 3.46377684 48.78515625 3.71875 C92.15758205 9.78972212 137.52305982 33.51126311 169.4375 62.8125 C172.40518025 65.52050822 175.39058184 68.1940547 178.4375 70.8125 C185.27701893 76.78503766 191.47252976 83.30446746 197.3125 90.25 C197.88097656 90.91773437 198.44945312 91.58546875 199.03515625 92.2734375 C210.7900813 106.49914298 220.80832703 121.89611053 229.3125 138.25 C229.67037598 138.92482422 230.02825195 139.59964844 230.39697266 140.29492188 C235.87640688 150.64300126 240.30784506 161.2530101 244.3125 172.25 C244.99119141 174.08111328 244.99119141 174.08111328 245.68359375 175.94921875 C249.52459026 186.82605934 252.06900374 197.94847894 254.3125 209.25 C254.51294922 210.23387695 254.71339844 211.21775391 254.91992188 212.23144531 C264.49351936 260.86845942 258.90629038 317.07243332 238.3125 362.25 C237.86414795 363.28809814 237.86414795 363.28809814 237.40673828 364.34716797 C234.4101514 371.28185309 230.96449082 377.97713329 227.5 384.6875 C226.90896484 385.85087891 226.31792969 387.01425781 225.70898438 388.21289062 C222.04792923 395.3074326 218.04289018 401.82570161 213.3125 408.25 C212.48042956 409.44126432 211.65188365 410.63500428 210.828125 411.83203125 C205.07547964 420.03451007 198.92481997 427.72674856 192.3125 435.25 C191.5390625 436.13558594 190.765625 437.02117187 189.96875 437.93359375 C181.42685038 447.57330793 172.44422806 456.29228647 162.3125 464.25 C161.32636719 465.04148437 160.34023438 465.83296875 159.32421875 466.6484375 C146.49131146 476.78052122 132.65522669 485.42134343 118.3125 493.25 C117.58675781 493.65089844 116.86101562 494.05179687 116.11328125 494.46484375 C114.3125 495.25 114.3125 495.25 111.3125 495.25 C111.3125 495.91 111.3125 496.57 111.3125 497.25 C110.29671875 497.62511719 109.2809375 498.00023437 108.234375 498.38671875 C106.84367334 498.90343957 105.45305429 499.42038274 104.0625 499.9375 C103.33466309 500.20643066 102.60682617 500.47536133 101.85693359 500.75244141 C97.46775321 502.38959124 93.20247369 504.18182008 88.9375 506.125 C83.57711184 508.34334245 79.04492765 509.65905296 73.3125 508.25 C69.8253618 506.27223672 68.03918613 503.84471257 66.3125 500.25 C65.00315506 493.58437656 65.45625228 486.62688112 65.55078125 479.87109375 C65.5515547 477.85579751 65.54865973 475.84049686 65.5422821 473.82521057 C65.53270536 468.52552626 65.56126456 463.22682352 65.60144043 457.92730713 C65.66292435 449.47231257 65.68255916 441.0175856 65.67162132 432.5623951 C65.67568025 429.63152378 65.70585113 426.70177394 65.73860168 423.77110291 C65.81726533 408.55179821 64.32625648 392.58169476 53.81640625 380.53515625 C52.6714085 379.41610745 51.49558886 378.32869867 50.3125 377.25 C50.3125 376.59 50.3125 375.93 50.3125 375.25 C55.1449334 374.15171968 59.97721619 373.10800685 64.84375 372.171875 C97.16289915 365.88849375 126.85453571 353.87813743 146.08203125 325.65234375 C155.56591245 310.43103555 161.22869363 293.11076208 163.4375 275.4375 C163.52687836 274.73146637 163.61625671 274.02543274 163.70834351 273.29800415 C165.83259319 256.2218134 166.08042754 239.37874569 164.3125 222.25 C163.6525 222.25 162.9925 222.25 162.3125 222.25 C162.03599609 220.81333984 162.03599609 220.81333984 161.75390625 219.34765625 C158.73597527 205.02521031 152.73694175 192.24204288 142.84375 181.328125 C140.66929063 178.37707299 140.07234946 175.84792475 140.6171875 172.22265625 C140.80539062 171.59230469 140.99359375 170.96195313 141.1875 170.3125 C146.56895655 151.85637787 143.85078676 129.35228586 138.3125 111.25 C137.97065055 109.91882464 137.63428352 108.58616775 137.3125 107.25 C113.78662815 107.6660524 88.22938533 117.80197462 70.171875 133.05859375 C67.56026608 134.73199862 65.84849336 134.38366949 62.8125 134 C61.40484375 133.83757812 61.40484375 133.83757812 59.96875 133.671875 C57.69957366 133.31147641 55.52676036 132.85578821 53.3125 132.25 C53.3125 131.59 53.3125 130.93 53.3125 130.25 C52.51070313 130.20101562 51.70890625 130.15203125 50.8828125 130.1015625 C44.96469387 129.71238917 39.09584826 129.2475666 33.21315002 128.50259399 C22.59096614 127.18502434 12.07050328 126.85350365 1.375 126.875 C0.48940399 126.87454681 -0.39619202 126.87409363 -1.30862427 126.87362671 C-18.38755213 126.89914027 -35.63344315 127.69614871 -52.03515625 132.88671875 C-55.72197823 134.03058832 -58.79624916 134.80016212 -62.6875 134.25 C-64.93359375 133 -64.93359375 133 -67.125 131.25 C-85.04993697 117.92741171 -108.13435011 106.81043724 -130.6875 108.25 C-137.89185832 127.11764511 -142.42812225 150.28610342 -135.125 169.9375 C-133.9481962 173.10755042 -133.6875 174.71555528 -133.6875 178.25 C-135.3168563 179.95315989 -136.98986697 181.61488604 -138.6875 183.25 C-140.1242696 185.37620849 -141.49905589 187.5454742 -142.8125 189.75 C-143.47507812 190.8534375 -144.13765625 191.956875 -144.8203125 193.09375 C-145.43648438 194.1353125 -146.05265625 195.176875 -146.6875 196.25 C-147.20957031 197.07886719 -147.73164063 197.90773437 -148.26953125 198.76171875 C-149.89669544 201.61710053 -151.07730004 204.49289352 -152.25 207.5625 C-152.87068359 209.16544922 -152.87068359 209.16544922 -153.50390625 210.80078125 C-165.37995997 245.4098751 -159.53104573 286.3342815 -143.875 318.6875 C-134.99546079 336.08811454 -121.65469573 348.80875828 -104.6875 358.25 C-104.01589844 358.63542969 -103.34429687 359.02085937 -102.65234375 359.41796875 C-90.23794001 366.10264769 -76.91963567 369.37404539 -63.15039062 371.81201172 C-59.95986285 372.37939939 -56.77722639 372.98558645 -53.59375 373.59106445 C-50.62676782 374.15375639 -47.65731788 374.70249168 -44.6875 375.25 C-46.05114343 378.14531876 -47.63605752 380.65326747 -49.5 383.25 C-54.13733826 390.15498533 -57.46057619 397.45835915 -58.4375 405.75 C-58.93366782 408.59499896 -59.15477295 409.81828666 -61.41796875 411.65234375 C-63.80642064 412.7725911 -66.15169223 413.52603071 -68.6875 414.25 C-69.45835937 414.54519531 -70.22921875 414.84039062 -71.0234375 415.14453125 C-81.81751334 418.87308426 -95.92750322 419.30179645 -106.5625 415 C-110.48280673 413.03709747 -114.20437969 410.92309233 -117.6875 408.25 C-118.2134375 407.86714844 -118.739375 407.48429687 -119.28125 407.08984375 C-126.61274795 401.37460785 -131.7606324 393.34176464 -136.6875 385.5625 C-143.57060487 375.09562978 -153.39221431 366.65668781 -165.69921875 363.71484375 C-170.9921103 362.89150506 -176.35870476 362.64570363 -181.6875 363.25 C-182.3475 363.91 -183.0075 364.57 -183.6875 365.25 C-183.59360562 368.72409213 -182.85001193 370.07216221 -180.4921875 372.65234375 C-177.74355593 375.1980819 -174.93071687 377.33736945 -171.875 379.5 C-160.02021743 388.32216378 -152.34281609 399.67424121 -146.6875 413.25 C-139.94166477 428.06078181 -132.49079443 438.32054206 -116.6875 444.25 C-115.470625 444.745 -114.25375 445.24 -113 445.75 C-99.14634815 450.78536792 -83.79959686 450.4464512 -69.44921875 447.6875 C-66.48638441 447.2181401 -63.68264748 447.22103389 -60.6875 447.25 C-60.53506765 454.81199242 -60.43016524 462.37358709 -60.35791016 469.93676758 C-60.32778179 472.50820725 -60.28687058 475.07954454 -60.23486328 477.65063477 C-60.16188097 481.35198253 -60.12800211 485.05196896 -60.1015625 488.75390625 C-60.07059479 489.89896133 -60.03962708 491.04401642 -60.00772095 492.22377014 C-60.00502902 498.64249851 -60.54849539 502.43279753 -65.15489197 507.07414246 C-68.26977878 509.46396626 -70.78627834 509.06079325 -74.53515625 508.7890625 C-100.86163107 504.28713744 -126.90393199 487.32590945 -147.6875 471.25 C-148.88115919 470.34458885 -150.07516938 469.43964027 -151.26953125 468.53515625 C-161.62502724 460.62151178 -171.81485037 452.16052822 -180.125 442.06640625 C-181.75963287 440.11819786 -181.75963287 440.11819786 -184.0078125 437.9453125 C-192.09593651 429.81002742 -199.41401155 420.84814822 -205.6875 411.25 C-206.71230469 409.71859375 -206.71230469 409.71859375 -207.7578125 408.15625 C-222.03390869 386.60825747 -232.57579052 363.75384777 -240.6875 339.25 C-241.07965698 338.0889978 -241.07965698 338.0889978 -241.47973633 336.90454102 C-246.9446451 320.70090736 -249.25743989 304.40053596 -251.29492188 287.47924805 C-251.51914317 285.63486056 -251.75337202 283.79147809 -252.01757812 281.95239258 C-253.00067341 274.73169717 -252.83760662 267.43929023 -252.81787109 260.16674805 C-252.81252027 257.82138582 -252.81783683 255.47621572 -252.82421875 253.13085938 C-252.82918726 243.00349299 -252.41105049 233.27240227 -250.28515625 223.3515625 C-249.79455706 220.80557714 -249.37691278 218.2745253 -248.99609375 215.7109375 C-248.87282715 214.88650146 -248.74956055 214.06206543 -248.62255859 213.21264648 C-248.38057213 211.57249841 -248.14485685 209.93140837 -247.91650391 208.28930664 C-247.19600923 203.44129194 -246.05106869 199.00280725 -244.42114258 194.38208008 C-243.34652982 191.25908733 -242.55884668 188.07567226 -241.75 184.875 C-240.09692881 178.50923986 -238.08910035 172.37172638 -235.6875 166.25 C-235.36910156 165.43273437 -235.05070312 164.61546875 -234.72265625 163.7734375 C-233.72853768 161.25819774 -232.70828259 158.75452234 -231.6875 156.25 C-231.33042969 155.33734375 -230.97335938 154.4246875 -230.60546875 153.484375 C-220.21032286 127.47912709 -203.78078849 103.60291516 -184.6875 83.25 C-183.40983203 81.79765086 -182.13834424 80.33982586 -180.875 78.875 C-165.63835425 61.41634342 -146.50419287 47.62568173 -126.9375 35.4375 C-126.07463379 34.89834961 -125.21176758 34.35919922 -124.32275391 33.80371094 C-108.12300385 23.83701346 -108.12300385 23.83701346 -100.6875 23.25 C-100.6875 22.59 -100.6875 21.93 -100.6875 21.25 C-99.38039062 20.79560547 -99.38039062 20.79560547 -98.046875 20.33203125 C-96.85578125 19.91308594 -95.6646875 19.49414062 -94.4375 19.0625 C-92.69726562 18.45341797 -92.69726562 18.45341797 -90.921875 17.83203125 C-87.55208635 16.61601681 -84.28092081 15.22048702 -80.9921875 13.80078125 C-74.80194012 11.2032612 -68.55018849 9.324075 -62.0625 7.625 C-60.36951782 7.17616455 -60.36951782 7.17616455 -58.64233398 6.71826172 C-49.40812878 4.32554534 -40.16263356 2.37833315 -30.6875 1.25 C-29.9437915 1.1571875 -29.20008301 1.064375 -28.43383789 0.96875 C-18.98585409 -0.05651324 -9.49205532 0.00921403 0 0 Z " fill="#FDFDFD" transform="translate(252.6875,1.75)"/>
<path d="M0 0 C0.33 1.32 0.66 2.64 1 4 C0.57332031 4.35449219 0.14664062 4.70898438 -0.29296875 5.07421875 C-4.9170188 9.01181188 -9.23236854 13.18555948 -13.5 17.5 C-20.96364849 25.01087998 -20.96364849 25.01087998 -24.625 28.375 C-25.21539062 28.91898437 -25.80578125 29.46296875 -26.4140625 30.0234375 C-27.19910156 30.50683594 -27.19910156 30.50683594 -28 31 C-28.99 30.67 -29.98 30.34 -31 30 C-30.05640625 29.20078125 -29.1128125 28.4015625 -28.140625 27.578125 C-21.68089021 22.06753088 -15.31501323 16.51014516 -9.3125 10.5 C-8.83264648 10.02079102 -8.35279297 9.54158203 -7.85839844 9.04785156 C-5.03282729 6.17797353 -2.46347276 3.18462989 0 0 Z " fill="#222222" transform="translate(446,435)"/>
<path d="M0 0 C0.33 0 0.66 0 1 0 C1.04957515 5.58673826 1.08580253 11.17334739 1.10986328 16.76025391 C1.11989779 18.65936515 1.13352843 20.55846104 1.15087891 22.45751953 C1.17523951 25.19307251 1.18650877 27.92842053 1.1953125 30.6640625 C1.20563507 31.50804596 1.21595764 32.35202942 1.22659302 33.22158813 C1.22747386 37.88859637 0.79513086 41.6084515 -1 46 C-1.33 46 -1.66 46 -2 46 C-1.93941406 45.02546875 -1.87882812 44.0509375 -1.81640625 43.046875 C-0.95838849 28.70744732 -0.47711506 14.35640741 0 0 Z " fill="#252525" transform="translate(511,250)"/>
<path d="M0 0 C0.66 0.33 1.32 0.66 2 1 C0.59106853 2.63171123 -0.82745958 4.25513945 -2.25 5.875 C-3.03890625 6.77992187 -3.8278125 7.68484375 -4.640625 8.6171875 C-6.74691403 10.74439993 -8.25651526 11.90512306 -11 13 C-7.61227103 8.30840284 -4.21814817 3.9700218 0 0 Z " fill="#C4C4C4" transform="translate(75,77)"/>
<path d="M0 0 C-1.27875 0.2475 -2.5575 0.495 -3.875 0.75 C-7.26747318 1.51990586 -7.26747318 1.51990586 -9.5 4.125 C-9.665 4.74375 -9.83 5.3625 -10 6 C-11.5 4.625 -11.5 4.625 -13 3 C-13 2.34 -13 1.68 -13 1 C-11.58622218 0.63447197 -10.16879424 0.28304505 -8.75 -0.0625 C-7.96109375 -0.25972656 -7.1721875 -0.45695312 -6.359375 -0.66015625 C-3.89605178 -1.01497267 -2.34395868 -0.76877544 0 0 Z " fill="#CBCBCB" transform="translate(316,376)"/>
<path d="M0 0 C0.66 0.33 1.32 0.66 2 1 C-0.64 3.64 -3.28 6.28 -6 9 C-6.99 8.67 -7.98 8.34 -9 8 C-6.03 5.36 -3.06 2.72 0 0 Z " fill="#343434" transform="translate(424,457)"/>
<path d="M0 0 C0.33 1.32 0.66 2.64 1 4 C-1.31 5.98 -3.62 7.96 -6 10 C-6.66 9.67 -7.32 9.34 -8 9 C-5.36 6.03 -2.72 3.06 0 0 Z " fill="#CBCBCB" transform="translate(395,333)"/>
<path d="M0 0 C-0.66 1.65 -1.32 3.3 -2 5 C-4.31 5 -6.62 5 -9 5 C-2.40909091 0 -2.40909091 0 0 0 Z " fill="#2F2F2F" transform="translate(385,487)"/>
<path d="M0 0 C1.125 3.75 1.125 3.75 0 6 C-1.97485205 7.3703055 -3.97386717 8.70672372 -6 10 C-4.34832443 6.4213696 -2.21713508 3.25179812 0 0 Z " fill="#C3C3C3" transform="translate(54,101)"/>
<path d="M0 0 C1 3 1 3 1 5 C-1 6.625 -1 6.625 -3 8 C-3.66 7.67 -4.32 7.34 -5 7 C-3.35 4.69 -1.7 2.38 0 0 Z " fill="#323232" transform="translate(468,406)"/>
</svg>
